<svg width="49" height="49" viewBox="0 0 49 49" fill="none" xmlns="http://www.w3.org/2000/svg">
<rect x="0.500977" y="0.5" width="48" height="48" rx="24" stroke="#EDDFFF"/>
<g clip-path="url(#clip0_9_3678)">
<path d="M36.209 17.3543C36.1112 16.7009 35.7827 16.1042 35.2828 15.6723C34.7829 15.2404 34.1448 15.0019 33.4842 15H16.5177C15.8571 15.0019 15.219 15.2404 14.7192 15.6723C14.2193 16.1042 13.8907 16.7009 13.793 17.3543L25.001 24.6068L36.209 17.3543Z" fill="#18425D"/>
<path d="M25.4082 26.13C25.2869 26.2084 25.1455 26.2502 25.001 26.2502C24.8565 26.2502 24.7151 26.2084 24.5937 26.13L13.751 19.1145V30.2332C13.7518 30.9668 14.0435 31.6701 14.5622 32.1888C15.0809 32.7074 15.7842 32.9992 16.5177 33H33.4842C34.2178 32.9992 34.921 32.7074 35.4397 32.1888C35.9584 31.6701 36.2502 30.9668 36.251 30.2332V19.1137L25.4082 26.13Z" fill="#18425D"/>
</g>
<defs>
<clipPath id="clip0_9_3678">
<rect width="24" height="24" fill="white" transform="translate(13.001 12)"/>
</clipPath>
</defs>
</svg>
