<svg width="49" height="49" viewBox="0 0 49 49" fill="none" xmlns="http://www.w3.org/2000/svg">
<rect x="0.500977" y="0.5" width="48" height="48" rx="24" stroke="#EDDFFF"/>
<g clip-path="url(#clip0_9_3844)">
<path d="M35.5823 30.7063L35.4584 30.4384C35.0866 29.5599 30.5071 28.2137 30.1276 28.1921L29.8239 28.2154C29.1995 28.3441 28.5117 28.9358 27.0678 30.2155C25.4412 29.4627 23.2133 27.4564 22.1631 26.2713C21.0258 24.9901 19.607 22.8353 19.0971 21.2255C20.744 19.766 21.4301 19.1325 21.4737 18.4278C21.497 18.0483 20.7115 13.3431 19.8841 12.8659L19.6362 12.7095C19.1095 12.3701 18.3133 11.8572 17.4286 12.0372C17.215 12.0821 17.0057 12.1659 16.8104 12.2866C16.217 12.6617 14.7639 13.67 14.1009 14.9885C13.6919 15.8094 13.506 23.3015 19.1219 29.6348C23.857 34.9778 29.5317 35.9581 31.7321 36H32.0221C32.2524 35.9951 32.4296 35.979 32.5385 35.9566L32.5679 35.9519L32.6594 35.9239C34.0475 35.4267 35.2234 34.1035 35.6649 33.5582C36.4809 32.5483 35.8984 31.3491 35.5823 30.7063Z" fill="#18425D"/>
</g>
<defs>
<clipPath id="clip0_9_3844">
<rect width="24" height="24" fill="white" transform="translate(13.001 12)"/>
</clipPath>
</defs>
</svg>
